<svg width="22" height="13" viewBox="0 0 22 13" fill="none" xmlns="http://www.w3.org/2000/svg">
<path d="M0.593438 12L4.44944 0.48H6.43344L10.2894 12H8.80944L5.20144 1.312H5.64944L2.07344 12H0.593438ZM2.44944 9.304V7.968H8.43344V9.304H2.44944ZM16.0887 12.24C15.2994 12.24 14.5794 12.1013 13.9287 11.824C13.278 11.5467 12.718 11.1493 12.2487 10.632C11.7794 10.1093 11.4167 9.48 11.1607 8.744C10.91 8.00267 10.7847 7.168 10.7847 6.24C10.7847 5.01333 11.0034 3.952 11.4407 3.056C11.878 2.16 12.494 1.46933 13.2887 0.983999C14.0834 0.493333 15.0167 0.247999 16.0887 0.247999C17.3794 0.247999 18.4194 0.549333 19.2087 1.152C19.998 1.74933 20.542 2.568 20.8407 3.608L19.4007 3.904C19.1607 3.20533 18.766 2.648 18.2167 2.232C17.6674 1.816 16.982 1.608 16.1607 1.608C15.302 1.60267 14.5874 1.79467 14.0167 2.184C13.4514 2.568 13.0247 3.10933 12.7367 3.808C12.4487 4.50667 12.302 5.31733 12.2967 6.24C12.2914 7.15733 12.4327 7.96267 12.7207 8.656C13.0087 9.34933 13.438 9.89333 14.0087 10.288C14.5847 10.6773 15.302 10.8747 16.1607 10.88C16.902 10.8853 17.526 10.744 18.0327 10.456C18.5394 10.168 18.9314 9.752 19.2087 9.208C19.486 8.664 19.654 8.01067 19.7127 7.248H17.2647V6.072H21.2167C21.2327 6.17867 21.2407 6.30667 21.2407 6.456C21.246 6.6 21.2487 6.69867 21.2487 6.752C21.2487 7.80267 21.0514 8.744 20.6567 9.576C20.2674 10.4027 19.6887 11.0533 18.9207 11.528C18.158 12.0027 17.214 12.24 16.0887 12.24Z" fill="white"/>
</svg>
